# xmcd CD database file
#
# Track frame offsets:
#	187
#	42252
#	71460
#	103827
#	138025
#	168550
#
# Disc length: 2746 seconds
#
# Revision: 0
# Processed by: cddbd v1.5PL3 Copyright (c) Steve Scherf et al.
# Submitted via: CDex 1.50
#
DISCID=4c0ab806
DTITLE=Richie Beirach - Live in Tokyo "Solo Concert"
DYEAR=1900
DGENRE=Jazz
TTITLE0=ELM
TTITLE1=What are the Rules
TTITLE2=Peace Piece
TTITLE3=Blue in Green
TTITLE4=Nardis
TTITLE5=Sunday Song
EXTD=
EXTT0=
EXTT1=
EXTT2=
EXTT3=
EXTT4=
EXTT5=
PLAYORDER=
